<svg xmlns="http://www.w3.org/2000/svg" viewBox="0 0 512 512" role="img" aria-label="Hucha de saques">
  <defs>
    <linearGradient id="hero" x1="0%" y1="0%" x2="100%" y2="100%">
      <stop offset="0%" stop-color="#d42a7d"/>
      <stop offset="100%" stop-color="#a51f79"/>
    </linearGradient>
  </defs>
  <rect width="512" height="512" rx="143" fill="url(#hero)"/>
  <g transform="translate(106 106) scale(12.5)" fill="none" stroke="#ffffff" stroke-width="1.8" stroke-linecap="round" stroke-linejoin="round">
    <path d="M5.6 8.4 4.7 4.6c-.1-.5.3-.8.8-.6l3.6 1.6"/>
    <path d="m18.4 8.4.9-3.8c.1-.5-.3-.8-.8-.6l-3.6 1.6"/>
    <path d="M12 6.4c5 0 9 3.2 9 7.2s-4 7.2-9 7.2-9-3.2-9-7.2 4-7.2 9-7.2Z"/>
    <ellipse cx="12" cy="15.3" rx="3.5" ry="2.7"/>
    <path d="M10.8 15.3h.01"/>
    <path d="M13.2 15.3h.01"/>
    <path d="M8.2 11.7h.01"/>
  </g>
</svg>
